<svg width="383" height="345" viewBox="0 0 383 345" fill="none" xmlns="http://www.w3.org/2000/svg">
<path d="M-47.54 110.61L23.204 181.37C32.4902 190.658 43.5151 198.027 55.6492 203.054C67.7833 208.081 80.7888 210.668 93.923 210.668H104.953C118.087 210.668 131.093 213.255 143.227 218.282C155.361 223.309 166.386 230.678 175.672 239.966L251.39 315.702C260.676 324.99 271.701 332.359 283.835 337.386C295.969 342.413 308.975 345 322.109 345H543.78C571.287 345 593.585 322.701 593.585 295.195C593.585 281.988 588.34 269.322 579.002 259.982L526.167 207.134C518.808 199.774 518.81 187.84 526.17 180.481C529.704 176.948 534.497 174.963 539.495 174.963C549.903 174.963 558.341 166.525 558.341 156.117C558.341 151.12 556.356 146.327 552.823 142.792L444.747 34.691C435.461 25.4025 424.436 18.0343 412.301 13.0073C400.167 7.98026 387.161 5.39292 374.027 5.393H262.013C249.149 5.39295 236.41 2.85871 224.525 -2.065C212.64 -6.98871 201.842 -14.2054 192.746 -23.303C183.65 -32.401 172.851 -39.618 160.966 -44.5419C149.081 -49.4658 136.342 -52.0001 123.477 -52H-5.05994C-24.495 -52 -40.25 -36.245 -40.25 -16.81C-40.2499 -7.47852 -36.5436 1.47087 -29.946 8.07L-12.35 25.669C-2.63494 35.386 -2.63694 51.139 -12.354 60.854C-17.0195 65.5184 -23.3467 68.1388 -29.944 68.139C-43.686 68.139 -54.824 79.279 -54.824 93.019C-54.8241 99.6162 -52.204 105.943 -47.54 110.609V110.61Z" fill="#2D314D"/>
<path fill-rule="evenodd" clip-rule="evenodd" d="M166.46 111.61L237.204 182.37C246.49 191.658 257.515 199.027 269.649 204.054C281.783 209.081 294.789 211.668 307.923 211.668H318.953C332.087 211.668 345.093 214.255 357.227 219.282C369.361 224.309 380.386 231.678 389.672 240.966L465.39 316.702C474.676 325.99 485.701 333.359 497.835 338.386C509.969 343.413 522.975 346 536.109 346H757.78C785.287 346 807.585 323.701 807.585 296.195C807.585 282.988 802.34 270.322 793.002 260.982L740.167 208.134C732.808 200.774 732.81 188.84 740.17 181.481C743.704 177.948 748.497 175.963 753.495 175.963C763.903 175.963 772.341 167.525 772.341 157.117C772.341 152.12 770.356 147.327 766.823 143.792L658.747 35.691C649.461 26.4025 638.436 19.0343 626.301 14.0073C614.167 8.98026 601.161 6.39292 588.027 6.393H476.013C463.149 6.39295 450.41 3.85871 438.525 -1.065C426.64 -5.98871 415.842 -13.2054 406.746 -22.303C397.65 -31.401 386.851 -38.618 374.966 -43.5419C363.081 -48.4658 350.342 -51.0001 337.477 -51H208.94C189.505 -51 173.75 -35.245 173.75 -15.81C173.75 -6.47852 177.456 2.47087 184.054 9.07L201.649 26.669C211.364 36.386 211.362 52.139 201.645 61.854C196.979 66.5184 190.652 69.1388 184.055 69.139C170.313 69.139 159.175 80.279 159.175 94.019C159.175 100.616 161.795 106.943 166.459 111.609L166.46 111.61Z" fill="url(#paint0_linear)"/>
<defs>
<linearGradient id="paint0_linear" x1="159.175" y1="92.4718" x2="736.19" y2="353.734" gradientUnits="userSpaceOnUse">
<stop stop-color="#33D35E"/>
<stop offset="1" stop-color="#2AB6D9"/>
</linearGradient>
</defs>
</svg>
